<svg width="24" height="25" viewBox="0 0 24 25" fill="none" xmlns="http://www.w3.org/2000/svg">
<path d="M19.9988 11.9629H21.9987C21.9987 6.83287 18.1259 2.96387 12.9893 2.96387V4.96387C17.051 4.96387 19.9988 7.90687 19.9988 11.9629Z" fill="black"/>
<path d="M12.9992 8.96386C15.102 8.96386 15.999 9.86086 15.999 11.9639H17.9989C17.9989 8.73886 16.224 6.96386 12.9992 6.96386V8.96386ZM16.421 14.4069C16.2288 14.2322 15.9763 14.1391 15.7168 14.1471C15.4573 14.1551 15.211 14.2637 15.03 14.4499L12.6372 16.9109C12.0612 16.8009 10.9033 16.4399 9.71138 15.2509C8.51945 14.0579 8.15847 12.8969 8.05148 12.3249L10.5103 9.93086C10.6967 9.74999 10.8054 9.50368 10.8135 9.24407C10.8215 8.98445 10.7282 8.7319 10.5533 8.53986L6.85855 4.47686C6.68361 4.28422 6.44046 4.16737 6.18075 4.15112C5.92104 4.13488 5.66523 4.22052 5.46764 4.38986L3.29778 6.25086C3.1249 6.42438 3.02171 6.65531 3.00779 6.89986C2.99279 7.14986 2.70681 13.0719 7.29853 17.6659C11.3043 21.6709 16.322 21.9639 17.7039 21.9639C17.9059 21.9639 18.0299 21.9579 18.0629 21.9559C18.3074 21.9422 18.5382 21.8385 18.7108 21.6649L20.5707 19.4939C20.7402 19.2964 20.826 19.0406 20.8099 18.7809C20.7939 18.5212 20.6772 18.278 20.4847 18.1029L16.421 14.4069V14.4069Z" fill="black"/>
</svg>
