<svg width="24" height="25" viewBox="0 0 24 25" fill="none" xmlns="http://www.w3.org/2000/svg">
<path d="M12 2.39148C9.81276 2.39406 7.71584 3.26408 6.16923 4.8107C4.62261 6.35731 3.75259 8.45424 3.75001 10.6415C3.74739 12.4289 4.33124 14.1678 5.41201 15.5915C5.41201 15.5915 5.63701 15.8877 5.67376 15.9305L12 23.3915L18.3293 15.9267C18.3623 15.887 18.588 15.5915 18.588 15.5915L18.5888 15.5892C19.669 14.1662 20.2526 12.4281 20.25 10.6415C20.2474 8.45424 19.3774 6.35731 17.8308 4.8107C16.2842 3.26408 14.1873 2.39406 12 2.39148V2.39148ZM12 13.6415C11.4067 13.6415 10.8266 13.4655 10.3333 13.1359C9.83995 12.8062 9.45543 12.3377 9.22837 11.7895C9.00131 11.2414 8.9419 10.6382 9.05765 10.0562C9.17341 9.47427 9.45913 8.93972 9.87869 8.52016C10.2982 8.1006 10.8328 7.81488 11.4147 7.69912C11.9967 7.58337 12.5999 7.64278 13.1481 7.86984C13.6962 8.0969 14.1648 8.48142 14.4944 8.97477C14.8241 9.46812 15 10.0481 15 10.6415C14.999 11.4368 14.6826 12.1993 14.1202 12.7617C13.5578 13.3241 12.7954 13.6405 12 13.6415V13.6415Z" fill="black"/>
</svg>
