<svg width="15" height="16" viewBox="0 0 15 16" fill="none" xmlns="http://www.w3.org/2000/svg">
<path fill-rule="evenodd" clip-rule="evenodd" d="M4.40795 0.963091C5.20773 0.926273 5.46273 0.918091 7.5 0.918091C9.53727 0.918091 9.79227 0.926954 10.5914 0.963091C11.3905 0.999227 11.9359 1.12673 12.4132 1.3115C12.913 1.50036 13.3664 1.79559 13.7414 2.17741C14.1232 2.55173 14.4177 3.00445 14.6059 3.50491C14.7914 3.98218 14.9182 4.52764 14.955 5.32536C14.9918 6.1265 15 6.3815 15 8.41809C15 10.4554 14.9911 10.7104 14.955 11.5101C14.9189 12.3079 14.7914 12.8533 14.6059 13.3306C14.4177 13.8311 14.1227 14.2846 13.7414 14.6595C13.3664 15.0413 12.913 15.3358 12.4132 15.524C11.9359 15.7095 11.3905 15.8363 10.5927 15.8731C9.79227 15.9099 9.53727 15.9181 7.5 15.9181C5.46273 15.9181 5.20773 15.9092 4.40795 15.8731C3.61023 15.837 3.06477 15.7095 2.5875 15.524C2.08699 15.3358 1.63351 15.0408 1.25864 14.6595C0.877077 14.2849 0.581806 13.8316 0.393409 13.3313C0.208636 12.854 0.0818182 12.3085 0.045 11.5108C0.00818181 10.7097 0 10.4547 0 8.41809C0 6.38082 0.00886363 6.12582 0.045 5.32673C0.0811364 4.52764 0.208636 3.98218 0.393409 3.50491C0.582084 3.00451 0.877581 2.55126 1.25932 2.17673C1.63366 1.79525 2.08669 1.49998 2.58682 1.3115C3.06409 1.12673 3.60955 0.999909 4.40727 0.963091H4.40795ZM10.5307 2.31309C9.73977 2.27695 9.5025 2.26945 7.5 2.26945C5.4975 2.26945 5.26023 2.27695 4.46932 2.31309C3.73773 2.3465 3.34091 2.46855 3.07636 2.5715C2.72659 2.70786 2.47636 2.86945 2.21386 3.13195C1.96503 3.37404 1.77353 3.66874 1.65341 3.99445C1.55045 4.259 1.42841 4.65582 1.395 5.38741C1.35886 6.17832 1.35136 6.41559 1.35136 8.41809C1.35136 10.4206 1.35886 10.6579 1.395 11.4488C1.42841 12.1804 1.55045 12.5772 1.65341 12.8417C1.77341 13.167 1.965 13.4622 2.21386 13.7042C2.45591 13.9531 2.75114 14.1447 3.07636 14.2647C3.34091 14.3676 3.73773 14.4897 4.46932 14.5231C5.26023 14.5592 5.49682 14.5667 7.5 14.5667C9.50318 14.5667 9.73977 14.5592 10.5307 14.5231C11.2623 14.4897 11.6591 14.3676 11.9236 14.2647C12.2734 14.1283 12.5236 13.9667 12.7861 13.7042C13.035 13.4622 13.2266 13.167 13.3466 12.8417C13.4495 12.5772 13.5716 12.1804 13.605 11.4488C13.6411 10.6579 13.6486 10.4206 13.6486 8.41809C13.6486 6.41559 13.6411 6.17832 13.605 5.38741C13.5716 4.65582 13.4495 4.259 13.3466 3.99445C13.2102 3.64468 13.0486 3.39445 12.7861 3.13195C12.544 2.88314 12.2493 2.69164 11.9236 2.5715C11.6591 2.46855 11.2623 2.3465 10.5307 2.31309V2.31309ZM6.54205 10.7301C7.07704 10.9528 7.67276 10.9829 8.22745 10.8152C8.78215 10.6475 9.2614 10.2924 9.58337 9.81053C9.90534 9.32871 10.05 8.75005 9.99276 8.17339C9.93548 7.59673 9.67978 7.05785 9.26932 6.64877C9.00766 6.38728 8.69128 6.18705 8.34295 6.06251C7.99463 5.93796 7.62302 5.8922 7.25488 5.92851C6.88675 5.96482 6.53124 6.0823 6.21396 6.2725C5.89667 6.46269 5.62551 6.72087 5.41998 7.02844C5.21445 7.33602 5.07967 7.68533 5.02535 8.05125C4.97103 8.41716 4.99851 8.79056 5.10582 9.14458C5.21313 9.4986 5.3976 9.82442 5.64595 10.0986C5.89429 10.3728 6.20034 10.5884 6.54205 10.7301ZM4.77409 5.69218C5.13206 5.33421 5.55704 5.05025 6.02475 4.85652C6.49246 4.66279 6.99375 4.56307 7.5 4.56307C8.00625 4.56307 8.50754 4.66279 8.97525 4.85652C9.44296 5.05025 9.86794 5.33421 10.2259 5.69218C10.5839 6.05015 10.8678 6.47513 11.0616 6.94284C11.2553 7.41055 11.355 7.91184 11.355 8.41809C11.355 8.92434 11.2553 9.42563 11.0616 9.89334C10.8678 10.3611 10.5839 10.786 10.2259 11.144C9.50295 11.867 8.52241 12.2731 7.5 12.2731C6.47759 12.2731 5.49705 11.867 4.77409 11.144C4.05113 10.421 3.64498 9.44051 3.64498 8.41809C3.64498 7.39568 4.05113 6.41514 4.77409 5.69218V5.69218ZM12.21 5.13718C12.2987 5.0535 12.3697 4.95287 12.4188 4.84125C12.468 4.72964 12.4942 4.6093 12.496 4.48736C12.4977 4.36543 12.475 4.24437 12.4292 4.13137C12.3833 4.01837 12.3153 3.91571 12.2291 3.82948C12.1428 3.74325 12.0402 3.6752 11.9272 3.62935C11.8142 3.58351 11.6931 3.5608 11.5712 3.56258C11.4492 3.56436 11.3289 3.59058 11.2173 3.6397C11.1057 3.68882 11.005 3.75984 10.9214 3.84855C10.7586 4.02107 10.6695 4.25022 10.673 4.48736C10.6764 4.7245 10.7722 4.95096 10.9399 5.11867C11.1076 5.28637 11.334 5.38211 11.5712 5.38557C11.8083 5.38902 12.0375 5.29992 12.21 5.13718V5.13718Z" fill="white"/>
</svg>
