<svg width="15" height="16" viewBox="0 0 15 16" fill="none" xmlns="http://www.w3.org/2000/svg">
<g clip-path="url(#clip0_1138_1265)">
<path fill-rule="evenodd" clip-rule="evenodd" d="M3.1209 3.44881C3.39947 3.16166 3.55268 2.77809 3.54947 2.37952C3.53508 1.99265 3.37344 1.62588 3.09761 1.35423C2.82178 1.08258 2.45259 0.926566 2.06554 0.918091C1.67732 0.926406 1.30678 1.08202 1.02904 1.3534C0.751304 1.62477 0.587138 1.9916 0.569824 2.37952C0.575331 2.77771 0.733641 3.15856 1.01202 3.44333C1.29041 3.72809 1.66757 3.89499 2.06554 3.90952C2.4641 3.90015 2.84306 3.73472 3.1209 3.44881ZM1.78911 5.87881C1.16018 5.86488 0.73161 5.85523 0.73161 6.62452V15.1874C0.73161 15.9406 1.1409 15.9256 1.73018 15.9031C1.83732 15.8988 1.94982 15.8945 2.06661 15.8945C2.18447 15.8945 2.29697 15.8988 2.40304 15.9031C2.99018 15.9245 3.3909 15.9406 3.3909 15.1874V6.62559C3.3909 5.85631 2.9709 5.86488 2.34518 5.87988C2.15985 5.88413 1.97444 5.88305 1.78911 5.87881ZM6.16482 5.89488C5.87982 5.95166 5.69661 6.13381 5.69661 6.62452V15.1874C5.69661 15.9406 6.08982 15.9256 6.68018 15.9031C6.78732 15.8988 6.90197 15.8945 7.0209 15.8945C7.1409 15.8945 7.25447 15.8988 7.36268 15.9031C7.95625 15.9245 8.35697 15.9406 8.35697 15.1874V10.6209C8.33412 10.3875 8.36114 10.1519 8.43622 9.92973C8.51131 9.70754 8.63276 9.50384 8.79251 9.33213C8.95227 9.16042 9.14669 9.02462 9.3629 8.93372C9.5791 8.84282 9.81215 8.7989 10.0466 8.80488C10.2822 8.79077 10.5181 8.82758 10.7382 8.91278C10.9583 8.99798 11.1574 9.12959 11.3221 9.29865C11.4868 9.46771 11.6132 9.67026 11.6926 9.89251C11.772 10.1148 11.8026 10.3515 11.7823 10.5867V15.152C11.7823 15.9063 12.1745 15.8913 12.7648 15.8688C12.872 15.8645 12.9866 15.8602 13.1055 15.8602C13.2255 15.8602 13.3391 15.8645 13.4473 15.8688C14.0377 15.8902 14.4298 15.9063 14.4298 15.1531V9.30738C14.4518 8.82743 14.3725 8.34824 14.197 7.90097C14.0216 7.4537 13.754 7.04836 13.4116 6.71132C13.0692 6.37428 12.6597 6.1131 12.2097 5.94474C11.7597 5.77639 11.2794 5.70464 10.7998 5.73416C10.3114 5.68973 9.81978 5.77141 9.37199 5.97139C8.92419 6.17137 8.53522 6.48295 8.24232 6.87631C8.25411 6.45416 8.11697 5.89488 7.77518 5.89488C7.67661 5.89488 7.52554 5.88952 7.35411 5.88416C6.92554 5.87131 6.3684 5.85416 6.16482 5.89488Z" fill="white"/>
</g>
<defs>
<clipPath id="clip0_1138_1265">
<rect width="15" height="15" fill="white" transform="translate(0 0.918091)"/>
</clipPath>
</defs>
</svg>
