<svg width="47" height="42" viewBox="0 0 47 42" fill="none" xmlns="http://www.w3.org/2000/svg">
<path d="M37.1625 30.0116L0.882626 18.4474C0.821678 18.428 0.759449 18.4734 0.759449 18.5374V40.3671C0.759449 40.4193 0.80175 40.4615 0.853931 40.4615H37.1338C37.186 40.4615 37.2283 40.4192 37.2283 40.3671V30.1016C37.2283 30.0605 37.2017 30.0241 37.1625 30.0116Z" stroke="#8D4F00" stroke-width="1.3227"/>
<path d="M9.89379 21.1699L46.1737 9.01615C46.2349 8.99565 46.2982 9.04119 46.2982 9.10574V40.3672C46.2982 40.4194 46.2559 40.4617 46.2037 40.4617H9.9238C9.87162 40.4617 9.82932 40.4194 9.82932 40.3672V21.2595C9.82932 21.2189 9.85528 21.1828 9.89379 21.1699Z" stroke="#8D4F00" stroke-width="1.3227"/>
<path d="M14.8879 1.99016L32.2721 13.1554C32.2991 13.1728 32.3155 13.2028 32.3155 13.2349V40.556C32.3155 40.6082 32.2732 40.6505 32.221 40.6505H14.8369C14.7847 40.6505 14.7424 40.6082 14.7424 40.556V2.06965C14.7424 1.99493 14.8251 1.94977 14.8879 1.99016Z" stroke="#8D4F00" stroke-width="1.3227"/>
</svg>
