<svg width="400" height="400" viewBox="0 0 400 400" fill="none" xmlns="http://www.w3.org/2000/svg">
<rect width="400" height="400" rx="27" fill="#8D4F00"/>
<path d="M271.152 248.197L79.1518 186.997C78.8293 186.894 78.5 187.135 78.5 187.473V303C78.5 303.276 78.7238 303.5 79 303.5H271C271.276 303.5 271.5 303.276 271.5 303V248.673C271.5 248.456 271.359 248.263 271.152 248.197Z" stroke="white" stroke-width="7"/>
<path d="M128.841 201.404L320.841 137.084C321.165 136.976 321.5 137.217 321.5 137.558V303C321.5 303.276 321.276 303.5 321 303.5H129C128.724 303.5 128.5 303.276 128.5 303V201.878C128.5 201.664 128.637 201.473 128.841 201.404Z" stroke="white" stroke-width="7"/>
<path d="M154.27 98.9023L246.27 157.991C246.413 158.083 246.5 158.241 246.5 158.412V303C246.5 303.276 246.276 303.5 246 303.5H154C153.724 303.5 153.5 303.276 153.5 303V99.323C153.5 98.9275 153.937 98.6886 154.27 98.9023Z" stroke="white" stroke-width="7"/>
</svg>
