<svg width="37" height="32" viewBox="0 0 37 32" fill="none" xmlns="http://www.w3.org/2000/svg">
<path d="M28.5606 23.0012C28.5606 22.9696 28.5401 22.9416 28.51 22.932L0.602396 14.0364C0.555513 14.0215 0.507645 14.0565 0.507645 14.1057V30.8977C0.507645 30.9379 0.540184 30.9704 0.580322 30.9704H28.4879C28.5281 30.9704 28.5606 30.9379 28.5606 30.8977V23.0012Z" stroke="#8D4F00" stroke-width="1.01746"/>
<path d="M7.48432 16.1996C7.48432 16.1683 7.50429 16.1406 7.53391 16.1307L35.4415 6.78163C35.4886 6.76586 35.5373 6.80089 35.5373 6.85054V30.8978C35.5373 30.938 35.5047 30.9705 35.4646 30.9705H7.557C7.51686 30.9705 7.48432 30.938 7.48432 30.8978V16.1996Z" stroke="#8D4F00" stroke-width="1.01746"/>
<path d="M11.2636 1.43822C11.2636 1.38074 11.3272 1.34601 11.3756 1.37707L24.748 9.96574C24.7688 9.9791 24.7814 10.0021 24.7814 10.0269V31.0431C24.7814 31.0833 24.7488 31.1158 24.7087 31.1158H11.3363C11.2962 31.1158 11.2636 31.0833 11.2636 31.0431V1.43822Z" stroke="#8D4F00" stroke-width="1.01746"/>
</svg>
