<svg width="34" height="37" viewBox="0 0 34 37" fill="none" xmlns="http://www.w3.org/2000/svg">
<g clip-path="url(#clip0_1137_1196)">
<path d="M15.9122 17.6082L0.838867 33.4005C1.00814 34.0004 1.31233 34.5536 1.72817 35.0179C2.14402 35.4822 2.66053 35.8453 3.2382 36.0794C3.81587 36.3135 4.43941 36.4124 5.06117 36.3685C5.68293 36.3247 6.28643 36.1393 6.82555 35.8265L23.7859 26.1671L15.9122 17.6082Z" fill="#EA4335"/>
<path d="M31.1533 14.9238L23.8191 10.7229L15.5635 17.9674L23.8526 26.1444L31.131 21.9885C31.7758 21.6509 32.3158 21.1432 32.6927 20.5205C33.0695 19.8979 33.2687 19.1839 33.2687 18.4561C33.2687 17.7283 33.0695 17.0143 32.6927 16.3917C32.3158 15.769 31.7758 15.2613 31.131 14.9237H31.1535L31.1533 14.9238Z" fill="#FBBC04"/>
<path d="M0.838008 3.43347C0.746898 3.7703 0.701544 4.11786 0.703167 4.46679V32.367C0.704112 32.7158 0.749422 33.0631 0.838008 33.4005L16.428 18.0126L0.838008 3.43347Z" fill="#4285F4"/>
<path d="M16.0245 18.417L23.8196 10.723L6.88178 1.01857C6.24451 0.645347 5.5197 0.447697 4.78119 0.445748C2.94849 0.442186 1.33727 1.65855 0.838867 3.4223L16.0245 18.417Z" fill="#34A853"/>
</g>
<defs>
<clipPath id="clip0_1137_1196">
<rect width="32.58" height="36" fill="white" transform="translate(0.696289 0.44574)"/>
</clipPath>
</defs>
</svg>
